Coordinates
version=1
nRows=13
nColumns=30
inDegrees=yes

Units are S.I. units (second, meters, Newtons, ...)
Angles are in degrees.

endheader
time	floatyaw	floatroll	floatpitch	floatx	floaty	floatz	pro_sup_l	deviation_l	flexion_l	cmc_flexion_l	cmc_abduction_l	mp_flexion_l	ip_flexion_l	2mcp_flexion_l	2mcp_abduction_l	2pm_flexion_l	2md_flexion_l	3mcp_flexion_l	3mcp_abduction_l	3pm_flexion_l	3md_flexion_l	4mcp_flexion_l	4mcp_abduction_l	4pm_flexion_l	4md_flexion_l	5mcp_flexion_l	5mcp_abduction_l	5pm_flexion_l	5md_flexion_l
-0.995000	-3.995636	-4.876138	96.430707	-0.108313	-0.184123	-0.040578	85.805661	0.581282	-3.444069	15.556411	4.028639	-21.914030	-34.148474	39.175115	9.443534	47.938889	34.331724	22.080023	5.035560	47.410249	33.230231	10.052762	-5.074653	62.444807	43.272001	0.994052	-8.046941	63.242251	43.863284
-0.985000	-3.995636	-4.876138	96.430707	-0.108309	-0.184119	-0.040554	85.800886	0.566805	-3.438530	15.535843	4.007186	-21.923412	-34.150030	39.167653	9.446928	47.956623	34.344533	22.066869	5.034314	47.429340	33.248321	10.036992	-5.071200	62.436829	43.275509	1.009781	-8.070517	63.244751	43.858819
-0.975000	-3.995636	-4.876138	96.430707	-0.108303	-0.184113	-0.040529	85.798554	0.552903	-3.433605	15.514886	3.983879	-21.931816	-34.152694	39.164455	9.447251	47.970328	34.353747	22.059695	5.033694	47.445558	33.264640	10.025059	-5.069942	62.436634	43.283151	1.032069	-8.095730	63.250120	43.854799
-0.965000	-3.995636	-4.876138	96.430707	-0.108294	-0.184104	-0.040504	85.802134	0.542133	-3.430360	15.492984	3.951594	-21.939679	-34.156427	39.169131	9.440939	47.979084	34.358897	22.060586	5.033432	47.455675	33.277455	10.022611	-5.072025	62.444475	43.294089	1.053808	-8.111898	63.256574	43.850826
-0.955000	-3.995636	-4.876138	96.430707	-0.108284	-0.184093	-0.040479	85.812956	0.536164	-3.430099	15.469024	3.903175	-21.948181	-34.161089	39.183039	9.427900	47.983249	34.360597	22.069521	5.033309	47.457838	33.285783	10.032510	-5.077511	62.456665	43.305884	1.068940	-8.111945	63.262577	43.847015
-0.945000	-3.995636	-4.876138	96.430707	-0.108272	-0.184083	-0.040458	85.829659	0.534762	-3.433904	15.442344	3.835845	-21.958429	-34.166409	39.204141	9.412094	47.985263	34.360738	22.084320	5.033441	47.453473	33.290511	10.053694	-5.085311	62.467765	43.315820	1.076144	-8.096250	63.268166	43.844049
-0.935000	-3.995636	-4.876138	96.430707	-0.108259	-0.184077	-0.040438	85.849190	0.535847	-3.442364	15.413538	3.754353	-21.970709	-34.172035	39.227857	9.399728	47.989823	34.362345	22.101788	5.034139	47.448023	33.294783	10.082097	-5.093560	62.473857	43.322440	1.079624	-8.072336	63.275670	43.843051
-0.925000	-3.995636	-4.876138	96.430707	-0.108244	-0.184078	-0.040420	85.868687	0.536666	-3.455513	15.384569	3.670651	-21.984144	-34.177615	39.249311	9.396276	48.002735	34.368772	22.119208	5.035528	47.449402	33.303032	10.112996	-5.100366	62.474961	43.326390	1.086589	-8.050727	63.289133	43.845237
-0.915000	-3.995636	-4.876138	96.430707	-0.108228	-0.184087	-0.040402	85.886873	0.535260	-3.472692	15.358069	3.599450	-21.997014	-34.182864	39.265488	9.404071	48.028407	34.382296	22.135071	5.037341	47.464365	33.318924	10.143167	-5.104611	62.475041	43.330077	1.103127	-8.039725	63.312291	43.851303
-0.905000	-3.995636	-4.876138	96.430707	-0.108209	-0.184101	-0.040383	85.904028	0.531215	-3.492210	15.336123	3.551407	-22.007699	-34.187697	39.276018	9.421673	48.067109	34.402783	22.148697	5.039155	47.494627	33.343264	10.171434	-5.106405	62.479580	43.336375	1.131244	-8.042304	63.345998	43.860785
-0.895000	-3.995636	-4.876138	96.430707	-0.108189	-0.184116	-0.040364	85.920922	0.525361	-3.511158	15.319193	3.527610	-22.015719	-34.192356	39.282381	9.445018	48.113867	34.427351	22.159460	5.040889	47.535258	33.373243	10.197639	-5.106921	62.492369	43.347155	1.168749	-8.056391	63.386709	43.871802
-0.885000	-3.995636	-4.876138	96.430707	-0.108168	-0.184129	-0.040346	85.937848	0.518922	-3.525983	15.305731	3.518599	-22.022180	-34.197424	39.286471	9.469408	48.160214	34.451533	22.166602	5.043071	47.576750	33.403635	10.221364	-5.107673	62.513594	43.362492	1.211500	-8.077324	63.427248	43.881543
-0.875000	-3.995636	-4.876138	96.430707	-0.108150	-0.184134	-0.040331	85.954588	0.512933	-3.533926	15.292666	3.508656	-22.029260	-34.203596	39.289674	9.491099	48.198148	34.471416	22.169841	5.046491	47.609813	33.429397	10.241589	-5.109675	62.540248	43.380872	1.256062	-8.100326	63.459740	43.887408
